<svg width="279" height="193" viewBox="0 0 279 193" fill="none" xmlns="http://www.w3.org/2000/svg">
<path d="M147.088 192.51C144.639 192.508 142.229 193.132 140.087 194.325H154.072C151.936 193.133 149.532 192.508 147.088 192.51Z" fill="#E6E6E6"/>
<path d="M174.227 190.695C170.135 190.69 166.142 191.958 162.798 194.325H185.64C182.301 191.961 178.314 190.693 174.227 190.695Z" fill="#E6E6E6"/>
<path d="M327.953 167.717C326.931 149.127 312.044 133.971 293.53 132.7C284.995 132.099 276.516 134.475 269.528 139.427C262.54 144.378 257.472 151.601 255.184 159.872C254.735 159.856 254.286 159.838 253.833 159.838C245.82 159.839 238.023 162.443 231.608 167.261C225.193 172.079 220.506 178.851 218.246 186.564C212.937 184.223 207.003 183.715 201.375 185.12C195.747 186.524 190.742 189.762 187.144 194.325H302.837C317.05 194.325 328.559 182.514 327.979 168.266C327.972 168.083 327.963 167.9 327.953 167.717Z" fill="#E6E6E6"/>
<path d="M108.448 69.2103C108.448 69.2103 93.6988 64.6011 95.9629 72.1844C98.227 79.7677 110.65 75.9372 110.65 75.9372L108.448 69.2103Z" fill="#FFB8B8"/>
<path d="M164.826 40.7469C164.826 40.7469 157.268 30.3842 149.924 41.142C142.566 51.9209 135.725 60.7698 135.725 60.7698L117.451 66.7476L106.879 67.6887L109.791 77.1188L140.531 72.6449C140.531 72.6449 174.753 52.2495 164.826 40.7469Z" fill="#2F2E41"/>
<path d="M131.089 98.1351C131.089 98.1351 119.607 106.199 120.372 113.495C121.138 120.791 126.114 140.758 126.114 140.758L136.448 139.222C136.448 139.222 137.596 123.863 133.768 118.103L152.14 107.735L131.089 98.1351Z" fill="#FFB8B8"/>
<path d="M156.542 117.143C156.542 117.143 155.776 131.35 157.69 137.11C159.604 142.87 161.517 164.374 161.517 164.374H172.234C172.234 164.374 177.21 145.558 171.086 137.11C171.086 137.11 169.172 125.975 174.53 120.599L156.542 117.143Z" fill="#FFB8B8"/>
<path d="M154.054 77.7835C154.054 77.7835 129.175 93.5272 129.175 98.5191L149.078 115.031L155.967 107.351L155.202 118.871L176.636 123.095C176.636 123.095 184.29 93.9112 183.908 92.7592C183.525 91.6072 182.377 74.7115 182.377 74.7115L154.054 77.7835Z" fill="#2F2E41"/>
<path d="M136.448 137.302L125.348 139.606L127.32 147.74C128.291 151.744 128.401 155.908 127.645 159.958C127.645 159.958 139.127 163.03 139.127 161.494C139.127 159.958 136.448 153.814 137.213 149.59C137.979 145.366 136.448 137.302 136.448 137.302Z" fill="#22668A"/>
<path d="M142.189 166.102C141.806 164.566 138.626 157.602 138.494 158.78C138.361 159.958 132.237 161.878 129.941 159.574C129.941 159.574 126.879 156.886 125.731 159.574C124.583 162.262 122.286 166.87 122.286 166.87C122.286 166.87 111.952 171.862 113.483 174.55C113.793 175.093 114.651 175.322 115.822 175.343C115.794 175.414 115.78 175.489 115.78 175.565V175.838C115.78 176.005 115.846 176.166 115.964 176.284C116.082 176.403 116.242 176.47 116.409 176.47H116.681C116.848 176.47 117.008 176.403 117.126 176.284C117.244 176.166 117.311 176.005 117.311 175.838V175.565C117.31 175.467 117.286 175.371 117.242 175.284C117.555 175.256 117.879 175.22 118.213 175.176C118.125 175.286 118.077 175.424 118.076 175.565V175.838C118.076 176.005 118.142 176.166 118.26 176.284C118.379 176.403 118.539 176.47 118.706 176.47H118.977C119.144 176.47 119.304 176.403 119.422 176.284C119.541 176.166 119.607 176.005 119.607 175.838V175.565C119.607 175.453 119.576 175.343 119.519 175.246C119.462 175.149 119.38 175.069 119.281 175.015C120.162 174.868 121.082 174.68 121.996 174.472C121.936 174.57 121.904 174.683 121.903 174.797V175.07C121.903 175.237 121.97 175.398 122.088 175.516C122.206 175.635 122.366 175.702 122.533 175.702H122.805C122.972 175.702 123.132 175.635 123.25 175.516C123.368 175.398 123.434 175.237 123.434 175.07V174.797C123.434 174.675 123.399 174.556 123.332 174.453C123.266 174.351 123.171 174.27 123.06 174.221C123.746 174.053 124.418 173.878 125.057 173.705C124.998 173.803 124.966 173.915 124.965 174.03V174.302C124.965 174.469 125.032 174.63 125.15 174.748C125.268 174.867 125.428 174.934 125.595 174.934H125.866C126.034 174.934 126.194 174.867 126.312 174.748C126.43 174.63 126.496 174.469 126.496 174.302V174.03C126.496 173.895 126.453 173.764 126.373 173.656C126.293 173.548 126.181 173.469 126.053 173.429C128.301 172.794 129.941 172.246 129.941 172.246C129.941 172.246 131.845 171.55 134.151 170.611V170.846C134.151 171.013 134.218 171.174 134.336 171.293C134.454 171.411 134.614 171.478 134.781 171.478H135.052C135.219 171.478 135.38 171.411 135.498 171.293C135.616 171.174 135.682 171.013 135.682 170.846V170.574C135.682 170.478 135.66 170.383 135.618 170.297C135.575 170.211 135.514 170.136 135.439 170.078C135.901 169.883 136.368 169.682 136.83 169.478V169.694C136.83 169.861 136.897 170.022 137.015 170.141C137.133 170.259 137.293 170.326 137.46 170.326H137.731C137.899 170.326 138.059 170.259 138.177 170.141C138.295 170.022 138.361 169.861 138.361 169.694V169.422C138.361 169.32 138.337 169.22 138.29 169.13C138.243 169.04 138.175 168.962 138.092 168.904C138.591 168.671 139.072 168.437 139.516 168.208C139.514 168.229 139.51 168.249 139.51 168.27V168.542C139.51 168.709 139.576 168.87 139.694 168.989C139.812 169.107 139.972 169.174 140.139 169.174H140.411C140.578 169.174 140.738 169.107 140.856 168.989C140.974 168.87 141.041 168.709 141.041 168.542V168.27C141.04 168.124 140.99 167.983 140.898 167.87C140.807 167.757 140.679 167.68 140.536 167.65C141.607 167.027 142.281 166.474 142.189 166.102Z" fill="#2F2E41"/>
<path d="M172.999 162.646L160.874 161.878C160.874 161.878 161.609 174.55 160.139 178.773C158.67 182.997 159.404 184.533 159.404 184.533L170.06 185.301L172.999 162.646Z" fill="#22668A"/>
<path d="M173.149 190.652C173.094 189.07 171.431 181.594 171.057 182.718C170.682 183.843 164.294 184.439 162.527 181.706C162.527 181.706 160.091 178.436 158.409 180.825C156.728 183.214 153.524 187.24 153.524 187.24C153.524 187.24 142.38 189.96 143.318 192.909C143.508 193.506 144.299 193.91 145.441 194.174C145.399 194.238 145.369 194.309 145.353 194.383L145.297 194.65C145.262 194.813 145.293 194.985 145.384 195.125C145.475 195.266 145.618 195.364 145.781 195.399L146.046 195.456C146.21 195.491 146.38 195.459 146.521 195.368C146.661 195.277 146.759 195.134 146.794 194.97L146.85 194.704C146.87 194.608 146.867 194.508 146.842 194.414C147.154 194.452 147.479 194.485 147.814 194.511C147.705 194.601 147.629 194.725 147.599 194.864L147.542 195.13C147.508 195.294 147.539 195.465 147.63 195.606C147.721 195.746 147.864 195.845 148.027 195.88L148.292 195.936C148.456 195.971 148.626 195.94 148.766 195.849C148.907 195.757 149.005 195.614 149.04 195.45L149.096 195.184C149.119 195.074 149.113 194.96 149.077 194.853C149.041 194.746 148.977 194.651 148.892 194.578C149.784 194.618 150.723 194.627 151.66 194.614C151.581 194.698 151.526 194.801 151.502 194.913L151.445 195.179C151.411 195.343 151.442 195.514 151.533 195.655C151.624 195.796 151.767 195.894 151.93 195.929L152.195 195.986C152.359 196.021 152.529 195.989 152.669 195.898C152.81 195.807 152.908 195.664 152.943 195.5L152.999 195.234C153.025 195.114 153.015 194.99 152.971 194.876C152.927 194.762 152.851 194.663 152.753 194.591C153.458 194.571 154.152 194.54 154.814 194.504C154.735 194.588 154.68 194.691 154.656 194.803L154.6 195.069C154.565 195.233 154.596 195.404 154.687 195.544C154.778 195.685 154.921 195.784 155.084 195.819L155.35 195.875C155.513 195.91 155.683 195.879 155.824 195.788C155.964 195.696 156.062 195.553 156.097 195.389L156.153 195.123C156.181 194.991 156.166 194.855 156.111 194.732C156.055 194.61 155.962 194.509 155.845 194.443C158.175 194.292 159.893 194.099 159.893 194.099C159.893 194.099 161.9 193.817 164.35 193.381L164.302 193.61C164.267 193.774 164.298 193.945 164.389 194.086C164.48 194.227 164.623 194.325 164.786 194.36L165.052 194.417C165.215 194.452 165.386 194.42 165.526 194.329C165.666 194.238 165.764 194.095 165.799 193.931L165.856 193.665C165.875 193.571 165.873 193.474 165.85 193.381C165.826 193.288 165.782 193.202 165.72 193.129C166.214 193.035 166.712 192.936 167.206 192.833L167.161 193.044C167.127 193.208 167.158 193.379 167.249 193.52C167.34 193.66 167.483 193.759 167.646 193.794L167.911 193.851C168.075 193.886 168.245 193.854 168.385 193.763C168.526 193.672 168.624 193.528 168.659 193.364L168.715 193.098C168.736 192.999 168.733 192.896 168.706 192.798C168.679 192.7 168.628 192.61 168.559 192.536C169.096 192.412 169.615 192.284 170.096 192.153C170.09 192.173 170.082 192.191 170.078 192.212L170.021 192.478C169.986 192.642 170.018 192.813 170.109 192.954C170.2 193.094 170.342 193.193 170.506 193.228L170.771 193.285C170.935 193.32 171.105 193.288 171.245 193.197C171.385 193.106 171.484 192.962 171.518 192.798L171.575 192.532C171.605 192.39 171.586 192.241 171.519 192.111C171.453 191.982 171.344 191.879 171.211 191.821C172.387 191.435 173.162 191.035 173.149 190.652Z" fill="#2F2E41"/>
<path d="M154.054 27.8645C160.184 27.8645 165.153 22.8789 165.153 16.7287C165.153 10.5786 160.184 5.59296 154.054 5.59296C147.924 5.59296 142.954 10.5786 142.954 16.7287C142.954 22.8789 147.924 27.8645 154.054 27.8645Z" fill="#FFB8B8"/>
<path d="M164.005 15.5768C164.005 15.5768 170.129 23.2566 173.191 22.8726L159.795 33.2404C159.795 33.2404 158.264 26.7125 156.35 25.9445C154.437 25.1766 164.005 15.5768 164.005 15.5768Z" fill="#FFB8B8"/>
<path d="M187.926 72.5996C187.926 72.5996 187.925 30.2275 180.841 26.5774C173.76 22.9295 169.076 20.8474 169.076 20.8474C168.972 22.2378 168.578 23.5907 167.92 24.8188C167.262 26.0469 166.355 27.1228 165.256 27.9771C162.908 29.7955 160.569 31.3034 159.263 31.3082L159.221 31.1284L159.061 30.6719L155.202 36.6963C155.202 36.6963 151.757 37.4643 150.609 39.7682C149.988 41.0147 152.917 53.5624 151.183 64.9197C149.712 74.5555 143.513 83.2538 143.337 84.3114C143.04 86.099 150.575 81.4153 153.968 79.2257C154.018 79.2819 154.054 79.3195 154.054 79.3195C154.054 79.3195 152.14 80.0874 155.967 78.9355C158.136 78.2827 161.164 78.2466 163.382 78.3377C163.379 79.0048 163.395 79.5348 163.431 79.8954C163.814 83.7354 182.951 89.1113 185.63 87.9593C188.309 86.8073 187.926 72.5996 187.926 72.5996Z" fill="#2F2E41"/>
<path d="M174.53 87.1913C174.53 87.1913 163.048 97.5591 170.703 99.4791C178.358 101.399 181.42 88.7273 181.42 88.7273L174.53 87.1913Z" fill="#FFB8B8"/>
<path d="M161.134 114.071C161.134 114.071 166.493 109.079 169.555 111.767C172.617 114.455 174.53 116.375 174.53 116.375C174.53 116.375 165.727 110.999 161.134 114.071Z" fill="#22668A"/>
<path d="M162.526 173.8C162.526 173.8 165.546 170.987 167.272 172.502C168.998 174.017 170.077 175.099 170.077 175.099C170.077 175.099 165.115 172.069 162.526 173.8Z" fill="#2F2E41"/>
<path d="M128.691 147.629C128.691 147.629 130.764 144.056 132.854 145.001C134.945 145.947 136.291 146.667 136.291 146.667C136.291 146.667 130.665 145.217 128.691 147.629Z" fill="#2F2E41"/>
<path d="M185.034 31.846C181.24 24.1946 169.696 28.3677 171.572 36.7038C171.6 36.8281 171.629 36.9536 171.66 37.0803C173.637 44.9714 176.868 52.4915 181.228 59.3519L177.018 78.1675L172.425 87.7673L181.994 90.0712L193.859 61.2718C193.859 61.2718 190.586 43.0425 185.034 31.846Z" fill="#2F2E41"/>
<path opacity="0.2" d="M179.506 59.9278L172.234 87.5752L178.358 74.5195L179.506 59.9278Z" fill="black"/>
<path d="M161.025 3.74828C161.025 3.74828 154.889 -2.73216 148.714 1.34897C142.538 5.43011 139.608 9.39454 140.214 12.1549C140.819 14.9152 142.611 18.7548 142.611 18.7548C142.611 18.7548 141.498 13.0361 146.611 12.6129C151.725 12.1897 158.79 8.7946 158.79 8.7946L163.568 19.0333C163.568 19.0333 164.244 16.6607 166.117 17.3412C167.99 18.0218 166.538 4.50732 161.025 3.74828Z" fill="#2F2E41"/>
<path d="M121.712 150.166C121.712 151.139 121.631 152.11 121.471 153.069V153.073C121.031 155.653 120.013 158.1 118.493 160.228C116.974 162.356 114.992 164.11 112.698 165.358C110.403 166.605 107.857 167.313 105.25 167.429C102.643 167.544 100.044 167.064 97.649 166.025H97.6452C96.9365 165.718 96.2498 165.363 95.5898 164.961C93.5444 163.722 91.7779 162.07 90.4022 160.111C89.0265 158.151 88.0717 155.925 87.5982 153.576C87.3762 152.453 87.2647 151.311 87.2652 150.166C87.2652 149.644 87.2882 149.125 87.3341 148.615V148.611C87.7312 144.201 89.8003 140.113 93.1143 137.19C96.4284 134.266 100.735 132.731 105.144 132.899C109.554 133.068 113.731 134.929 116.813 138.098C119.895 141.266 121.647 145.501 121.708 149.928V149.932C121.712 150.012 121.712 150.085 121.712 150.166Z" fill="#22668A"/>
<path d="M108.728 144.395H101.014L97.1573 137.694L99.7735 133.144L99.9264 133.103C103.238 132.215 106.736 132.313 109.994 133.385L110.132 133.432L112.585 137.694L108.728 144.395ZM101.456 143.627H108.287L111.701 137.694L109.616 134.07C106.589 133.107 103.354 133.015 100.278 133.804L98.0413 137.694L101.456 143.627Z" fill="white"/>
<path d="M108.346 158.219H100.632L96.7745 151.516L100.632 144.814H108.346L112.203 151.516L108.346 158.219ZM101.073 157.451H107.904L111.319 151.516L107.904 145.582H101.073L97.6585 151.516L101.073 157.451Z" fill="white"/>
<path d="M104.489 167.83C102.083 167.834 99.7024 167.34 97.4965 166.377L97.1031 166.206L101.014 159.405H108.728L112.475 165.915L112.103 166.095C109.728 167.243 107.125 167.836 104.489 167.83ZM98.1975 165.839C100.302 166.689 102.556 167.103 104.824 167.058C107.092 167.013 109.327 166.51 111.396 165.577L108.287 160.173H101.456L98.1975 165.839Z" fill="white"/>
<path d="M121.359 151.306H113.645L109.788 144.606L113.645 137.901H117.157L117.271 138.021C120.317 141.236 122.039 145.488 122.091 149.923V150.034L121.359 151.306ZM114.087 150.538H120.917L121.324 149.832C121.25 145.681 119.648 141.705 116.827 138.669H114.087L110.672 144.606L114.087 150.538Z" fill="white"/>
<path d="M113.539 165.327L109.788 158.813L113.645 152.109H121.358L121.854 152.965L121.848 153.137C121.43 155.582 120.504 157.912 119.131 159.976C117.757 162.039 115.967 163.789 113.875 165.113L113.539 165.327ZM110.672 158.813L113.801 164.246C115.696 162.983 117.317 161.348 118.567 159.439C119.816 157.531 120.668 155.389 121.071 153.142L120.917 152.877H114.087L110.672 158.813Z" fill="white"/>
<path d="M95.7261 165.492L95.392 165.29C93.3018 164.022 91.4966 162.334 90.0905 160.33C88.6843 158.327 87.7079 156.053 87.223 153.651L87.1946 153.509L88.0012 152.109H95.7153L99.5722 158.813L95.7261 165.492ZM88.0025 153.641C88.4674 155.846 89.366 157.936 90.6459 159.788C91.9258 161.639 93.5611 163.216 95.456 164.426L98.6882 158.813L95.2731 152.877H88.443L88.0025 153.641Z" fill="white"/>
<path d="M95.7151 150.538H88.0013L86.9514 148.718V148.615C87.3293 144.263 89.3057 140.208 92.4969 137.236L92.6071 137.133H95.7152L99.5722 143.838L95.7151 150.538ZM88.4428 149.77H95.2733L98.6882 143.838L95.2731 137.901H92.9092C89.9563 140.697 88.1148 144.473 87.7263 148.528L88.4428 149.77Z" fill="white"/>
</svg>
