<svg width="32" height="32" viewBox="0 0 32 32" fill="none" xmlns="http://www.w3.org/2000/svg">
<g clip-path="url(#clip0_829_3123)" filter="url(#filter0_i_829_3123)">
<path d="M20.539 -0.0011589C20.2928 0.00868726 20.0553 0.052995 19.8079 0.114533L3.0768 4.19084C1.09773 4.67576 -0.140428 6.67207 0.345726 8.65238L2.69157 18.2302C2.83372 18.8007 3.1105 19.3289 3.49873 19.7704C3.88696 20.212 4.37534 20.5541 4.92296 20.7681V18.4604C4.92296 15.0672 7.68357 12.3065 11.0768 12.3065H26.5771L24.2694 2.80623C24.0653 1.9804 23.5827 1.25023 22.9029 0.738819C22.2231 0.227412 21.3878 -0.0339372 20.5377 -0.0011589H20.539ZM22.038 5.30715L23.0386 9.49915L18.8848 10.4985L17.846 6.34469L22.038 5.30715V5.30715ZM11.0768 14.7681C9.03865 14.7681 7.3845 16.4222 7.3845 18.4604V28.3065C7.3845 30.3447 9.03865 31.9988 11.0768 31.9988H28.3076C30.3457 31.9988 31.9999 30.3447 31.9999 28.3065V18.4604C31.9999 16.4222 30.3457 14.7681 28.3076 14.7681H11.0768ZM11.0768 16.7299H28.3076C29.2565 16.7299 30.038 17.5115 30.038 18.4604V19.6912H9.34634V18.4604C9.34634 17.5115 10.1279 16.7299 11.0768 16.7299ZM9.34634 23.3835H30.038V28.3065C30.038 29.2555 29.2565 30.037 28.3076 30.037H11.0768C10.6187 30.0344 10.18 29.8513 9.85604 29.5273C9.53207 29.2033 9.34893 28.7647 9.34634 28.3065V23.3835Z" fill="url(#paint0_linear_829_3123)"/>
</g>
<defs>
<filter id="filter0_i_829_3123" x="0" y="0" width="35" height="32" filterUnits="userSpaceOnUse" color-interpolation-filters="sRGB">
<feFlood flood-opacity="0" result="BackgroundImageFix"/>
<feBlend mode="normal" in="SourceGraphic" in2="BackgroundImageFix" result="shape"/>
<feColorMatrix in="SourceAlpha" type="matrix" values="0 0 0 0 0 0 0 0 0 0 0 0 0 0 0 0 0 0 127 0" result="hardAlpha"/>
<feOffset dx="3"/>
<feGaussianBlur stdDeviation="3"/>
<feComposite in2="hardAlpha" operator="arithmetic" k2="-1" k3="1"/>
<feColorMatrix type="matrix" values="0 0 0 0 0 0 0 0 0 0 0 0 0 0 0 0 0 0 0.15 0"/>
<feBlend mode="normal" in2="shape" result="effect1_innerShadow_829_3123"/>
</filter>
<linearGradient id="paint0_linear_829_3123" x1="15.9998" y1="-0.00134277" x2="15.9998" y2="40.4987" gradientUnits="userSpaceOnUse">
<stop stop-color="#51C091"/>
<stop offset="1" stop-color="#495894"/>
</linearGradient>
<clipPath id="clip0_829_3123">
<rect width="32" height="32" fill="white"/>
</clipPath>
</defs>
</svg>
