<svg width="26" height="26" viewBox="0 0 26 26" fill="none" xmlns="http://www.w3.org/2000/svg">
<path d="M23.5001 8.33338C24.1189 8.33338 24.7124 8.57921 25.15 9.0168C25.5876 9.45438 25.8334 10.0479 25.8334 10.6667V15.3334C25.8334 15.9522 25.5876 16.5457 25.15 16.9833C24.7124 17.4209 24.1189 17.6667 23.5001 17.6667H22.2611C21.9767 19.9222 20.8789 21.9964 19.1738 23.5C17.4687 25.0037 15.2735 25.8333 13.0001 25.8334V23.5C14.8566 23.5 16.6371 22.7625 17.9498 21.4498C19.2626 20.137 20.0001 18.3566 20.0001 16.5V9.50005C20.0001 7.64353 19.2626 5.86305 17.9498 4.5503C16.6371 3.23754 14.8566 2.50005 13.0001 2.50005C11.1436 2.50005 9.36309 3.23754 8.05033 4.5503C6.73758 5.86305 6.00008 7.64353 6.00008 9.50005V17.6667H2.50008C1.88124 17.6667 1.28775 17.4209 0.850166 16.9833C0.412581 16.5457 0.166748 15.9522 0.166748 15.3334V10.6667C0.166748 10.0479 0.412581 9.45438 0.850166 9.0168C1.28775 8.57921 1.88124 8.33338 2.50008 8.33338H3.73908C4.02378 6.07809 5.12167 4.0042 6.82675 2.50083C8.53183 0.997472 10.7269 0.167969 13.0001 0.167969C15.2733 0.167969 17.4683 0.997472 19.1734 2.50083C20.8785 4.0042 21.9764 6.07809 22.2611 8.33338H23.5001ZM8.05341 17.4159L9.29008 15.4372C10.402 16.1338 11.688 16.5022 13.0001 16.5C14.3122 16.5022 15.5982 16.1338 16.7101 15.4372L17.9467 17.4159C16.4642 18.3447 14.7495 18.8361 13.0001 18.8334C11.2506 18.8361 9.53594 18.3447 8.05341 17.4159Z" fill="#C7C7C7"/>
</svg>
