<svg width="32" height="32" viewBox="0 0 32 32" fill="none" xmlns="http://www.w3.org/2000/svg">
<path d="M16 32C24.3457 32 31.1111 25.2345 31.1111 16.8889C31.1111 8.54325 24.3457 1.77777 16 1.77777C7.65439 1.77777 0.888916 8.54325 0.888916 16.8889C0.888916 25.2345 7.65439 32 16 32Z" fill="#F4900C"/>
<path d="M16 30.2222C24.3457 30.2222 31.1111 23.4567 31.1111 15.1111C31.1111 6.76547 24.3457 0 16 0C7.65439 0 0.888916 6.76547 0.888916 15.1111C0.888916 23.4567 7.65439 30.2222 16 30.2222Z" fill="#FFCC4D"/>
<path d="M16 28.4444C22.8729 28.4444 28.4444 22.8729 28.4444 16C28.4444 9.12711 22.8729 3.55554 16 3.55554C9.12711 3.55554 3.55554 9.12711 3.55554 16C3.55554 22.8729 9.12711 28.4444 16 28.4444Z" fill="#FFE8B6"/>
<path d="M16 27.5555C22.8729 27.5555 28.4444 21.984 28.4444 15.1111C28.4444 8.23822 22.8729 2.66666 16 2.66666C9.12711 2.66666 3.55554 8.23822 3.55554 15.1111C3.55554 21.984 9.12711 27.5555 16 27.5555Z" fill="#FFAC33"/>
<g filter="url(#filter0_d_78_1513)">
<path d="M15.024 11.576V17.312C15.024 18.2 14.772 18.884 14.268 19.364C13.772 19.844 13.1 20.084 12.252 20.084C11.364 20.084 10.652 19.832 10.116 19.328C9.58 18.824 9.312 18.108 9.312 17.18H11.352C11.352 17.532 11.424 17.8 11.568 17.984C11.712 18.16 11.92 18.248 12.192 18.248C12.44 18.248 12.632 18.168 12.768 18.008C12.904 17.848 12.972 17.616 12.972 17.312V11.576H15.024ZM23.1615 14.288C23.1615 14.776 23.0495 15.224 22.8255 15.632C22.6015 16.032 22.2575 16.356 21.7935 16.604C21.3295 16.852 20.7535 16.976 20.0655 16.976H18.7935V20H16.7415V11.576H20.0655C20.7375 11.576 21.3055 11.692 21.7695 11.924C22.2335 12.156 22.5815 12.476 22.8135 12.884C23.0455 13.292 23.1615 13.76 23.1615 14.288ZM19.9095 15.344C20.3015 15.344 20.5935 15.252 20.7855 15.068C20.9775 14.884 21.0735 14.624 21.0735 14.288C21.0735 13.952 20.9775 13.692 20.7855 13.508C20.5935 13.324 20.3015 13.232 19.9095 13.232H18.7935V15.344H19.9095Z" fill="white"/>
</g>
<defs>
<filter id="filter0_d_78_1513" x="5.31201" y="11.576" width="21.8495" height="16.508" filterUnits="userSpaceOnUse" color-interpolation-filters="sRGB">
<feFlood flood-opacity="0" result="BackgroundImageFix"/>
<feColorMatrix in="SourceAlpha" type="matrix" values="0 0 0 0 0 0 0 0 0 0 0 0 0 0 0 0 0 0 127 0" result="hardAlpha"/>
<feOffset dy="4"/>
<feGaussianBlur stdDeviation="2"/>
<feComposite in2="hardAlpha" operator="out"/>
<feColorMatrix type="matrix" values="0 0 0 0 0 0 0 0 0 0 0 0 0 0 0 0 0 0 0.1 0"/>
<feBlend mode="normal" in2="BackgroundImageFix" result="effect1_dropShadow_78_1513"/>
<feBlend mode="normal" in="SourceGraphic" in2="effect1_dropShadow_78_1513" result="shape"/>
</filter>
</defs>
</svg>
