<svg width="26" height="26" viewBox="0 0 26 26" fill="none" xmlns="http://www.w3.org/2000/svg">
<path d="M22.6 6.59998H2.60001V5.79998L20.2 4.39198V5.79998H22.6V3.39998C22.6 1.63998 21.1744 0.404778 19.4336 0.652778L3.36801 2.94718C1.62561 3.19678 0.200012 4.83998 0.200012 6.59998V22.6C0.200012 23.4487 0.537154 24.2626 1.13727 24.8627C1.73739 25.4628 2.55132 25.8 3.40001 25.8H22.6C23.4487 25.8 24.2626 25.4628 24.8628 24.8627C25.4629 24.2626 25.8 23.4487 25.8 22.6V9.79998C25.8 8.95129 25.4629 8.13735 24.8628 7.53724C24.2626 6.93712 23.4487 6.59998 22.6 6.59998ZM20.2 17.8096C19.8847 17.8095 19.5726 17.7473 19.2813 17.6265C18.9901 17.5058 18.7255 17.3288 18.5026 17.1058C18.2798 16.8828 18.103 16.6181 17.9825 16.3268C17.8619 16.0355 17.7999 15.7233 17.8 15.408C17.8001 15.0927 17.8623 14.7805 17.9831 14.4893C18.1038 14.1981 18.2807 13.9335 18.5038 13.7106C18.7268 13.4877 18.9915 13.311 19.2828 13.1904C19.5741 13.0699 19.8863 13.0079 20.2016 13.008C20.8383 13.0082 21.4489 13.2613 21.899 13.7117C22.3491 14.1621 22.6018 14.7728 22.6016 15.4096C22.6014 16.0463 22.3483 16.6569 21.8979 17.107C21.4475 17.5571 20.8367 17.8098 20.2 17.8096Z" fill="#51C091"/>
</svg>
