<svg width="24" height="24" viewBox="0 0 24 24" fill="none" xmlns="http://www.w3.org/2000/svg">
<path d="M3 0C2.20435 0 1.44129 0.31607 0.87868 0.87868C0.31607 1.44129 0 2.20435 0 3V21C0 21.7957 0.31607 22.5587 0.87868 23.1213C1.44129 23.6839 2.20435 24 3 24H21C21.7957 24 22.5587 23.6839 23.1213 23.1213C23.6839 22.5587 24 21.7957 24 21V3C24 2.20435 23.6839 1.44129 23.1213 0.87868C22.5587 0.31607 21.7957 0 21 0H3ZM10.3733 7.70667L7.70667 10.3733C7.51917 10.5606 7.265 10.6658 7 10.6658C6.735 10.6658 6.48083 10.5606 6.29333 10.3733L4.96 9.04C4.78336 8.85043 4.6872 8.59971 4.69177 8.34064C4.69634 8.08157 4.80129 7.83439 4.9845 7.65117C5.16772 7.46795 5.4149 7.363 5.67397 7.35843C5.93304 7.35386 6.18377 7.45003 6.37333 7.62667L7 8.25333L8.96 6.29333C9.05155 6.19508 9.16195 6.11628 9.28462 6.06163C9.40728 6.00697 9.5397 5.97758 9.67397 5.97521C9.80824 5.97284 9.94161 5.99754 10.0661 6.04784C10.1906 6.09813 10.3038 6.17299 10.3987 6.26795C10.4937 6.36291 10.5685 6.47602 10.6188 6.60054C10.6691 6.72505 10.6938 6.85843 10.6915 6.9927C10.6891 7.12697 10.6597 7.25939 10.605 7.38205C10.5504 7.50472 10.4716 7.61512 10.3733 7.70667ZM18.3333 7.33333C18.5986 7.33333 18.8529 7.43869 19.0404 7.62623C19.228 7.81376 19.3333 8.06812 19.3333 8.33333C19.3333 8.59855 19.228 8.8529 19.0404 9.04044C18.8529 9.22798 18.5986 9.33333 18.3333 9.33333H13.6667C13.4015 9.33333 13.1471 9.22798 12.9596 9.04044C12.772 8.8529 12.6667 8.59855 12.6667 8.33333C12.6667 8.06812 12.772 7.81376 12.9596 7.62623C13.1471 7.43869 13.4015 7.33333 13.6667 7.33333H18.3333ZM12.6667 15.6667C12.6667 15.4015 12.772 15.1471 12.9596 14.9596C13.1471 14.772 13.4015 14.6667 13.6667 14.6667H18.3333C18.5986 14.6667 18.8529 14.772 19.0404 14.9596C19.228 15.1471 19.3333 15.4015 19.3333 15.6667C19.3333 15.9319 19.228 16.1862 19.0404 16.3738C18.8529 16.5613 18.5986 16.6667 18.3333 16.6667H13.6667C13.4015 16.6667 13.1471 16.5613 12.9596 16.3738C12.772 16.1862 12.6667 15.9319 12.6667 15.6667ZM10.3733 13.6267C10.5606 13.8142 10.6658 14.0683 10.6658 14.3333C10.6658 14.5983 10.5606 14.8525 10.3733 15.04L7.70667 17.7067C7.51917 17.8939 7.265 17.9991 7 17.9991C6.735 17.9991 6.48083 17.8939 6.29333 17.7067L4.96 16.3733C4.86175 16.2818 4.78295 16.1714 4.72829 16.0487C4.67364 15.9261 4.64425 15.7936 4.64188 15.6594C4.63951 15.5251 4.66421 15.3917 4.7145 15.2672C4.7648 15.1427 4.83966 15.0296 4.93462 14.9346C5.02957 14.8397 5.14269 14.7648 5.2672 14.7145C5.39172 14.6642 5.52509 14.6395 5.65936 14.6419C5.79363 14.6442 5.92605 14.6736 6.04872 14.7283C6.17138 14.7829 6.28178 14.8618 6.37333 14.96L7 15.5867L8.96 13.6267C9.1475 13.4394 9.40167 13.3342 9.66667 13.3342C9.93167 13.3342 10.1858 13.4394 10.3733 13.6267Z" fill="#5BCE5B"/>
</svg>
