<svg width="24" height="24" viewBox="0 0 24 24" fill="none" xmlns="http://www.w3.org/2000/svg">
<path d="M12.38 3.87988V10.8799H19.38V3.87988H12.38ZM17.88 9.37988H13.88V5.37988H17.88V9.37988Z" fill="#51C091"/>
<path d="M3.88 10.8799H10.88V3.87988H3.88V10.8799ZM5.38 5.37988H9.38V9.37988H5.38V5.37988Z" fill="#51C091"/>
<path d="M3.88 19.3799H10.88V12.3799H3.88V19.3799ZM5.38 13.8799H9.38V17.8799H5.38V13.8799Z" fill="#51C091"/>
<path d="M12.38 12.3799H14.13V14.1299H12.38V12.3799Z" fill="#51C091"/>
<path d="M15.88 12.3799H17.63V14.1299H15.88V12.3799Z" fill="#51C091"/>
<path d="M14.13 14.1299H15.88V15.8799H14.13V14.1299Z" fill="#51C091"/>
<path d="M17.63 14.1299H19.38V15.8799H17.63V14.1299Z" fill="#51C091"/>
<path d="M12.38 15.8799H14.13V17.6299H12.38V15.8799Z" fill="#51C091"/>
<path d="M15.88 15.8799H17.63V17.6299H15.88V15.8799Z" fill="#51C091"/>
<path d="M14.13 17.6299H15.88V19.3799H14.13V17.6299Z" fill="#51C091"/>
<path d="M17.63 17.6299H19.38V19.3799H17.63V17.6299Z" fill="#51C091"/>
</svg>
