<svg width="22" height="20" viewBox="0 0 22 20" fill="none" xmlns="http://www.w3.org/2000/svg">
<path d="M20.82 12.42L18.32 16.75C17.83 17.61 16.92 18.06 16 18H14V20L11.5 15.5L14 11V13H16.82L14.6 9.15L18.93 6.65L20.73 9.77C21.25 10.54 21.32 11.57 20.82 12.42ZM8.21 0.0599976H13.21C14.19 0.0599976 15.04 0.629997 15.45 1.45L16.45 3.19L18.18 2.19L15.54 6.6L10.39 6.69L12.12 5.69L10.71 3.24L8.5 7.09L4.16 4.59L5.96 1.47C6.37 0.639997 7.22 0.0599976 8.21 0.0599976ZM4.05 16.76L1.55 12.43C1.06 11.58 1.13 10.56 1.64 9.79L2.64 8.06L0.910004 7.06L6.05 7.14L8.7 11.56L6.97 10.56L5.56 13H10V18H6.4C5.93151 18.0339 5.4629 17.9357 5.04747 17.7165C4.63203 17.4973 4.28645 17.1659 4.05 16.76Z" fill="#51C091"/>
</svg>
