<svg width="26" height="26" viewBox="0 0 26 26" fill="none" xmlns="http://www.w3.org/2000/svg">
<path fill-rule="evenodd" clip-rule="evenodd" d="M13.0001 0.166016C5.91258 0.166016 0.166748 5.91185 0.166748 12.9993C0.166748 20.0868 5.91258 25.8327 13.0001 25.8327C20.0876 25.8327 25.8334 20.0868 25.8334 12.9993C25.8334 5.91185 20.0876 0.166016 13.0001 0.166016ZM12.4167 5.99935C12.1073 5.99935 11.8106 6.12227 11.5918 6.34106C11.373 6.55985 11.2501 6.8566 11.2501 7.16602C11.2501 7.47543 11.373 7.77218 11.5918 7.99097C11.8106 8.20977 12.1073 8.33268 12.4167 8.33268H13.0001C13.3095 8.33268 13.6062 8.20977 13.825 7.99097C14.0438 7.77218 14.1667 7.47543 14.1667 7.16602C14.1667 6.8566 14.0438 6.55985 13.825 6.34106C13.6062 6.12227 13.3095 5.99935 13.0001 5.99935H12.4167ZM10.6667 10.666C10.3573 10.666 10.0606 10.7889 9.84179 11.0077C9.623 11.2265 9.50008 11.5233 9.50008 11.8327C9.50008 12.1421 9.623 12.4388 9.84179 12.6576C10.0606 12.8764 10.3573 12.9993 10.6667 12.9993H11.8334V16.4993H10.6667C10.3573 16.4993 10.0606 16.6223 9.84179 16.8411C9.623 17.0599 9.50008 17.3566 9.50008 17.666C9.50008 17.9754 9.623 18.2722 9.84179 18.491C10.0606 18.7098 10.3573 18.8327 10.6667 18.8327H15.3334C15.6428 18.8327 15.9396 18.7098 16.1584 18.491C16.3772 18.2722 16.5001 17.9754 16.5001 17.666C16.5001 17.3566 16.3772 17.0599 16.1584 16.8411C15.9396 16.6223 15.6428 16.4993 15.3334 16.4993H14.1667V11.8327C14.1667 11.5233 14.0438 11.2265 13.825 11.0077C13.6062 10.7889 13.3095 10.666 13.0001 10.666H10.6667Z" fill="#C7C7C7"/>
</svg>
