<svg width="28" height="24" viewBox="0 0 28 24" fill="none" xmlns="http://www.w3.org/2000/svg">
<path fill-rule="evenodd" clip-rule="evenodd" d="M24.6667 0H3.33335C1.86669 0 0.666687 1.2 0.666687 2.66667V21.3333C0.666687 22.8 1.86669 24 3.33335 24H24.6667C26.1334 24 27.3334 22.8 27.3334 21.3333V2.66667C27.3334 1.2 26.1334 0 24.6667 0ZM10 18.6667H6.00002C5.26669 18.6667 4.66669 18.0667 4.66669 17.3333C4.66669 16.6 5.26669 16 6.00002 16H10C10.7334 16 11.3334 16.6 11.3334 17.3333C11.3334 18.0667 10.7334 18.6667 10 18.6667ZM10 13.3333H6.00002C5.26669 13.3333 4.66669 12.7333 4.66669 12C4.66669 11.2667 5.26669 10.6667 6.00002 10.6667H10C10.7334 10.6667 11.3334 11.2667 11.3334 12C11.3334 12.7333 10.7334 13.3333 10 13.3333ZM10 8H6.00002C5.26669 8 4.66669 7.4 4.66669 6.66667C4.66669 5.93333 5.26669 5.33333 6.00002 5.33333H10C10.7334 5.33333 11.3334 5.93333 11.3334 6.66667C11.3334 7.4 10.7334 8 10 8ZM22.9334 10.8267L18.7067 15.0533C18.1867 15.5733 17.3334 15.5733 16.8134 15.0533L14.9334 13.16C14.8099 13.0366 14.712 12.89 14.6452 12.7287C14.5784 12.5674 14.544 12.3946 14.544 12.22C14.544 12.0454 14.5784 11.8726 14.6452 11.7113C14.712 11.55 14.8099 11.4034 14.9334 11.28C15.0568 11.1566 15.2033 11.0586 15.3646 10.9918C15.5259 10.925 15.6988 10.8906 15.8734 10.8906C16.0479 10.8906 16.2208 10.925 16.3821 10.9918C16.5434 11.0586 16.6899 11.1566 16.8134 11.28L17.76 12.2267L21.0534 8.93333C21.1767 8.80973 21.3232 8.71167 21.4845 8.64476C21.6458 8.57785 21.8187 8.54341 21.9934 8.54341C22.168 8.54341 22.3409 8.57785 22.5022 8.64476C22.6635 8.71167 22.81 8.80973 22.9334 8.93333L22.9467 8.94667C23.4534 9.46667 23.4534 10.32 22.9334 10.8267Z" fill="#5BCE5B"/>
</svg>
