<svg width="16" height="20" viewBox="0 0 16 20" fill="none" xmlns="http://www.w3.org/2000/svg">
<path d="M2 0C2 0.513 2.49 1 3 1H13C13.513 1 14 0.51 14 0H16C16 0.795649 15.6839 1.55871 15.1213 2.12132C14.5587 2.68393 13.7956 3 13 3H9L9.001 5.062C10.934 5.30622 12.7115 6.24732 14.0001 7.70877C15.2887 9.17022 15.9998 11.0516 16 13V19C16 19.2652 15.8946 19.5196 15.7071 19.7071C15.5196 19.8946 15.2652 20 15 20H1C0.734784 20 0.48043 19.8946 0.292893 19.7071C0.105357 19.5196 0 19.2652 0 19V13C3.30739e-05 11.0514 0.711187 9.16977 2 7.70825C3.28882 6.24673 5.0667 5.30579 7 5.062V3H3C1.34 3 0 1.66 0 0H2ZM8 7C4.762 7 2 9.76 2 13V18H14V13C14 9.762 11.238 7 8 7ZM8 9C8.742 9 9.436 9.202 10.032 9.554L7.292 12.293C7.11265 12.473 7.00853 12.7144 7.00077 12.9684C6.99302 13.2223 7.08222 13.4697 7.25025 13.6603C7.41828 13.8508 7.65255 13.9703 7.90547 13.9944C8.1584 14.0185 8.41101 13.9454 8.612 13.79L8.707 13.707L11.447 10.968C11.8057 11.5756 11.9972 12.2672 12.0022 12.9727C12.0072 13.6783 11.8254 14.3725 11.4754 14.9851C11.1253 15.5977 10.6194 16.1068 10.0091 16.4606C9.39868 16.8145 8.70554 17.0006 8 17C5.79 17 4 15.21 4 13C4 10.79 5.79 9 8 9Z" fill="#51C091"/>
</svg>
