<svg width="40" height="40" viewBox="0 0 40 40" fill="none" xmlns="http://www.w3.org/2000/svg">
<circle cx="20" cy="20" r="20" fill="white"/>
<path d="M32.8334 28.1667C32.8334 28.7855 32.5876 29.379 32.15 29.8166C31.7124 30.2542 31.1189 30.5 30.5001 30.5H9.50008C8.88124 30.5 8.28775 30.2542 7.85017 29.8166C7.41258 29.379 7.16675 28.7855 7.16675 28.1667V15.3333C7.16675 14.7145 7.41258 14.121 7.85017 13.6834C8.28775 13.2458 8.88124 13 9.50008 13H14.1667L16.5001 9.5H23.5001L25.8334 13H30.5001C31.1189 13 31.7124 13.2458 32.15 13.6834C32.5876 14.121 32.8334 14.7145 32.8334 15.3333V28.1667Z" stroke="#263238" stroke-width="2" stroke-linecap="round" stroke-linejoin="round"/>
<path d="M19.9999 25.8333C22.5772 25.8333 24.6666 23.744 24.6666 21.1667C24.6666 18.5893 22.5772 16.5 19.9999 16.5C17.4226 16.5 15.3333 18.5893 15.3333 21.1667C15.3333 23.744 17.4226 25.8333 19.9999 25.8333Z" stroke="#263238" stroke-width="2" stroke-linecap="round" stroke-linejoin="round"/>
</svg>
