<svg width="28" height="28" viewBox="0 0 28 28" fill="none" xmlns="http://www.w3.org/2000/svg">
<path fill-rule="evenodd" clip-rule="evenodd" d="M12.0367 0.81508L9.92741 2.92255C9.75709 3.09294 9.5262 3.18892 9.28528 3.18948H5.96635C4.43195 3.18948 3.18875 4.43268 3.18875 5.96708V9.28601C3.18875 9.52868 3.09168 9.75828 2.92181 9.93001L0.812481 12.0375C0.29178 12.5584 -0.000732422 13.2647 -0.000732422 14.0012C-0.000732422 14.7377 0.29178 15.4441 0.812481 15.9649L2.92181 18.0743C3.09221 18.2446 3.18819 18.4755 3.18875 18.7164V22.0353C3.18875 23.5697 4.43195 24.8129 5.96635 24.8129H9.28528C9.52795 24.8129 9.75755 24.91 9.92928 25.0799L12.0367 27.1892C12.5576 27.7099 13.264 28.0024 14.0005 28.0024C14.737 28.0024 15.4433 27.7099 15.9642 27.1892L18.0735 25.0799C18.2439 24.9095 18.4748 24.8135 18.7157 24.8129H22.0346C23.569 24.8129 24.8122 23.5697 24.8122 22.0353V18.7164C24.8122 18.4737 24.9093 18.2441 25.0791 18.0724L27.1885 15.9649C27.7092 15.4441 28.0017 14.7377 28.0017 14.0012C28.0017 13.2647 27.7092 12.5584 27.1885 12.0375L25.0791 9.92815C24.9088 9.75782 24.8128 9.52694 24.8122 9.28601V5.96708C24.8122 4.43268 23.569 3.18948 22.0346 3.18948H18.7157C18.4741 3.18941 18.2425 3.0934 18.0717 2.92255L15.9642 0.813214C15.4433 0.292512 14.737 0 14.0005 0C13.264 0 12.5576 0.292512 12.0367 0.813214V0.81508ZM8.67301 18.0071L18.0063 8.67375L19.3279 9.99535L9.99462 19.3287L8.67301 18.0071ZM9.33381 9.33455V11.2012H11.2005V9.33455H9.33381ZM16.8005 18.6679H18.6671V16.8012H16.8005V18.6679Z" fill="#C7C7C7"/>
</svg>
