<svg width="20" height="18" viewBox="0 0 20 18" fill="none" xmlns="http://www.w3.org/2000/svg">
<path d="M11 0.799072C6.55498 0.799072 2.93898 4.36107 2.83098 8.79507V9.00007H0.458984L4.05298 12.8941L7.54698 9.00007H4.87498V8.79507C4.98198 5.49207 7.68298 2.85007 11 2.85007C14.386 2.85007 17.131 5.60407 17.131 9.00007C17.131 12.3961 14.386 15.1501 11 15.1501C9.69446 15.1508 8.42314 14.7327 7.37298 13.9571L5.96698 15.4611C7.402 16.5889 9.17479 17.2011 11 17.1991C15.515 17.1991 19.174 13.5291 19.174 9.00007C19.174 4.47107 15.515 0.799072 11 0.799072ZM9.99998 4.00007V9.00007C10.0011 9.26505 10.1064 9.51896 10.293 9.70707L13.493 12.9071C13.776 12.7241 14.043 12.5181 14.28 12.2791L12 10.0001V4.00007H9.99998Z" fill="#FFC727"/>
</svg>
