<svg width="16" height="16" viewBox="0 0 16 16" fill="none" xmlns="http://www.w3.org/2000/svg">
<path d="M9.2141 8L15.3664 0.666406C15.4696 0.544531 15.3828 0.359375 15.2235 0.359375H13.3532C13.243 0.359375 13.1375 0.408594 13.0649 0.492969L7.99066 6.54219L2.91644 0.492969C2.84613 0.408594 2.74066 0.359375 2.62816 0.359375H0.757848C0.598473 0.359375 0.511754 0.544531 0.614879 0.666406L6.76722 8L0.614879 15.3336C0.591778 15.3608 0.576958 15.394 0.572177 15.4293C0.567397 15.4647 0.572857 15.5006 0.58791 15.533C0.602963 15.5653 0.626977 15.5926 0.657099 15.6117C0.687222 15.6308 0.722188 15.6408 0.757848 15.6406H2.62816C2.73832 15.6406 2.84379 15.5914 2.91644 15.507L7.99066 9.45781L13.0649 15.507C13.1352 15.5914 13.2407 15.6406 13.3532 15.6406H15.2235C15.3828 15.6406 15.4696 15.4555 15.3664 15.3336L9.2141 8Z" fill="white"/>
</svg>
