<svg width="300" height="268" viewBox="0 0 300 268" fill="none" xmlns="http://www.w3.org/2000/svg">
<path d="M234.375 267.928H290.625C293.164 267.928 295.361 266.868 297.217 264.748C299.072 262.627 300 260.116 300 257.214V192.928C300 190.027 299.072 187.516 297.217 185.395C295.361 183.274 293.164 182.214 290.625 182.214C288.086 182.214 285.889 183.274 284.033 185.395C282.178 187.516 281.25 190.027 281.25 192.928V246.5H234.375C231.836 246.5 229.639 247.56 227.783 249.681C225.928 251.801 225 254.312 225 257.214C225 260.116 225.928 262.627 227.783 264.748C229.639 266.868 231.836 267.928 234.375 267.928ZM9.375 85.7856C11.9141 85.7856 14.1113 84.7253 15.9668 82.6048C17.8223 80.4843 18.75 77.9731 18.75 75.0713V21.4999H65.625C68.1641 21.4999 70.3613 20.4396 72.2168 18.3191C74.0723 16.1985 75 13.6874 75 10.7856C75 7.88379 74.0723 5.37265 72.2168 3.25211C70.3613 1.13156 68.1641 0.0712891 65.625 0.0712891H9.375C6.83594 0.0712891 4.63867 1.13156 2.7832 3.25211C0.927734 5.37265 0 7.88379 0 10.7856V75.0713C0 77.9731 0.927734 80.4843 2.7832 82.6048C4.63867 84.7253 6.83594 85.7856 9.375 85.7856ZM234.375 21.4999H281.25V75.0713C281.25 77.9731 282.178 80.4843 284.033 82.6048C285.889 84.7253 288.086 85.7856 290.625 85.7856C293.164 85.7856 295.361 84.7253 297.217 82.6048C299.072 80.4843 300 77.9731 300 75.0713V10.7856C300 7.88379 299.072 5.37265 297.217 3.25211C295.361 1.13156 293.164 0.0712891 290.625 0.0712891H234.375C231.836 0.0712891 229.639 1.13156 227.783 3.25211C225.928 5.37265 225 7.88379 225 10.7856C225 13.6874 225.928 16.1985 227.783 18.3191C229.639 20.4396 231.836 21.4999 234.375 21.4999ZM9.375 267.928H65.625C68.1641 267.928 70.3613 266.868 72.2168 264.748C74.0723 262.627 75 260.116 75 257.214C75 254.312 74.0723 251.801 72.2168 249.681C70.3613 247.56 68.1641 246.5 65.625 246.5H18.75V192.928C18.75 190.027 17.8223 187.516 15.9668 185.395C14.1113 183.274 11.9141 182.214 9.375 182.214C6.83594 182.214 4.63867 183.274 2.7832 185.395C0.927734 187.516 0 190.027 0 192.928V257.214C0 260.116 0.927734 262.627 2.7832 264.748C4.63867 266.868 6.83594 267.928 9.375 267.928Z" fill="white" fill-opacity="0.7"/>
</svg>
