<svg width="20" height="24" viewBox="0 0 20 24" fill="none" xmlns="http://www.w3.org/2000/svg">
<path d="M10 0.333374C3.78169 5.64171 0.666687 10.2267 0.666687 14.1C0.666687 19.91 5.10002 23.6667 10 23.6667C14.9 23.6667 19.3334 19.91 19.3334 14.1C19.3334 10.2267 16.2184 5.64171 10 0.333374ZM5.13502 14.3334C5.56669 14.3334 5.91669 14.6367 5.99835 15.0567C6.47669 17.6467 8.65835 18.5334 10.245 18.405C10.7467 18.3817 11.1667 18.7784 11.1667 19.28C11.1667 19.7467 10.7934 20.1317 10.3267 20.155C7.84169 20.3067 4.93669 18.8834 4.27169 15.3484C4.25141 15.2233 4.25855 15.0953 4.2926 14.9732C4.32665 14.8512 4.38681 14.738 4.46891 14.6415C4.55101 14.5449 4.65309 14.4674 4.7681 14.4142C4.88311 14.361 5.0083 14.3334 5.13502 14.3334Z" fill="#FFC727"/>
</svg>
