<svg width="28" height="28" viewBox="0 0 28 28" fill="none" xmlns="http://www.w3.org/2000/svg">
<path d="M17.9718 0.000450807C17.7564 0.00906619 17.5486 0.0478354 17.3321 0.101682L2.69242 3.66845C0.960724 4.09276 -0.122661 5.83953 0.302724 7.5723L2.35534 15.9529C2.47972 16.4521 2.7219 16.9142 3.0616 17.3006C3.4013 17.6869 3.82863 17.9863 4.3078 18.1735V16.1543C4.3078 13.1852 6.72334 10.7697 9.69242 10.7697H23.2552L21.236 2.45691C21.0574 1.73432 20.6351 1.09541 20.0402 0.647931C19.4454 0.20045 18.7145 -0.0282302 17.9707 0.000450807H17.9718ZM19.2835 4.64522L20.159 8.31322L16.5244 9.18768L15.6155 5.55307L19.2835 4.64522ZM9.69242 12.9235C7.90903 12.9235 6.46165 14.3709 6.46165 16.1543V24.7697C6.46165 26.5531 7.90903 28.0005 9.69242 28.0005H24.7693C26.5527 28.0005 28.0001 26.5531 28.0001 24.7697V16.1543C28.0001 14.3709 26.5527 12.9235 24.7693 12.9235H9.69242ZM9.69242 14.6401H24.7693C25.5996 14.6401 26.2835 15.324 26.2835 16.1543V17.2312H8.17826V16.1543C8.17826 15.324 8.86211 14.6401 9.69242 14.6401ZM8.17826 20.462H26.2835V24.7697C26.2835 25.6 25.5996 26.2838 24.7693 26.2838H9.69242C9.29154 26.2816 8.90772 26.1213 8.62425 25.8379C8.34078 25.5544 8.18052 25.1706 8.17826 24.7697V20.462Z" fill="#C7C7C7"/>
</svg>
